<svg fill="none" height="16" viewBox="0 0 16 16" width="16" xmlns="http://www.w3.org/2000/svg">
    <path d="M0.96 1.92004C0.43125 1.92004 0 2.35129 0 2.88004V4.80004C0 5.32879 0.43125 5.76004 0.96 5.76004H3.52C4.04875 5.76004 4.48 5.32879 4.48 4.80004V2.88004C4.48 2.35129 4.04875 1.92004 3.52 1.92004H0.96ZM7.36 1.92004C6.83125 1.92004 6.4 2.35129 6.4 2.88004V3.52004H5.12V4.16004H6.4V4.80004C6.4 5.32879 6.83125 5.76004 7.36 5.76004H9.92C10.4487 5.76004 10.88 5.32879 10.88 4.80004V2.88004C10.88 2.35129 10.4487 1.92004 9.92 1.92004H7.36ZM11.52 3.52004V4.16004H12.48C13.0087 4.16004 13.44 4.59129 13.44 5.12004V5.44004H14.08V5.12004C14.08 4.23754 13.3625 3.52004 12.48 3.52004H11.52ZM12.48 6.08004C11.9513 6.08004 11.52 6.51129 11.52 7.04004V8.96004C11.52 9.48879 11.9513 9.92004 12.48 9.92004H15.04C15.5687 9.92004 16 9.48879 16 8.96004V7.04004C16 6.51129 15.5687 6.08004 15.04 6.08004H12.48ZM0.96 10.24C0.43125 10.24 0 10.6713 0 11.2V13.12C0 13.6488 0.43125 14.08 0.96 14.08H3.52C4.04875 14.08 4.48 13.6488 4.48 13.12V11.2C4.48 10.6713 4.04875 10.24 3.52 10.24H0.96ZM7.36 10.24C6.83125 10.24 6.4 10.6713 6.4 11.2V11.84H5.12V12.48H6.4V13.12C6.4 13.6488 6.83125 14.08 7.36 14.08H9.92C10.4487 14.08 10.88 13.6488 10.88 13.12V11.2C10.88 10.6713 10.4487 10.24 9.92 10.24H7.36ZM13.44 10.56V10.88C13.44 11.4088 13.0087 11.84 12.48 11.84H11.52V12.48H12.48C13.3625 12.48 14.08 11.7625 14.08 10.88V10.56H13.44Z"
          fill="white"/>
</svg>
