<svg width="20" height="20" viewBox="0 0 20 20" fill="none" xmlns="http://www.w3.org/2000/svg">
    <path d="M8.84369 3.375C5.32806 3.375 2.46887 6.26581 2.46887 9.81268C2.46887 13.3752 5.32806 16.2501 8.84369 16.2501C10.4531 16.2501 11.9219 15.6406 13.0469 14.6406L13.4064 15.0001L13.078 15.3437C12.8905 15.5312 12.8905 15.8282 13.078 16.0157L15.8905 18.8593C15.9843 18.9531 16.0939 19 16.2189 19C16.3439 19 16.4688 18.9531 16.5469 18.8593L17.7969 17.5938C17.9688 17.4062 17.9689 17.1095 17.7814 16.9376L14.9689 14.0937C14.8751 13.9999 14.7655 13.9533 14.6405 13.9533C14.5155 13.9533 14.3906 13.9999 14.3124 14.0937L13.9844 14.4376L13.6249 14.0626C14.6093 12.9219 15.2188 11.4377 15.2188 9.81268C15.2188 6.26581 12.3593 3.375 8.84369 3.375ZM8.84369 4.32806C11.8437 4.32806 14.2813 6.797 14.2813 9.82825C14.2813 12.8595 11.8437 15.3126 8.84369 15.3126C5.84369 15.3126 3.40637 12.8595 3.40637 9.82825C3.40637 6.797 5.84369 4.32806 8.84369 4.32806ZM8.85925 6.28119C7.37488 6.28119 6.04688 7.23456 5.54688 8.64081C5.46875 8.84393 5.57806 9.09375 5.79681 9.15625C5.84369 9.17188 5.89062 9.18768 5.9375 9.18768C6.10938 9.18768 6.26562 9.07819 6.32812 8.90631C6.70313 7.82819 7.73425 7.09387 8.85925 7.09387C9.078 7.09387 9.26575 6.90643 9.26575 6.68768C9.26575 6.46893 9.078 6.28119 8.85925 6.28119ZM5.8905 10.1407C5.67175 10.1407 5.48431 10.3126 5.48431 10.5469V10.6095C5.49994 10.8282 5.672 11.0157 5.90637 11.0157C6.12512 11.0157 6.31256 10.8282 6.31256 10.6095V10.5625C6.31256 10.3281 6.14075 10.1407 5.90637 10.1407H5.8905ZM14.6564 15.0938L16.8124 17.2812L16.2189 17.8751L14.0625 15.6876L14.6564 15.0938Z" fill="white"/>
</svg>
